<svg width="40" height="40" viewBox="0 0 40 40" fill="none" xmlns="http://www.w3.org/2000/svg">
<g clip-path="url(#clip0_432_3724)">
<path d="M20 1.25C11.75 1.25 5 7.88158 5 15.9638C5 22.699 11 30.4704 15.3929 35.5477C16.1758 36.4941 16.9586 37.3541 17.6599 38.0487C17.7904 38.1779 17.8809 38.2817 17.9945 38.4259C18.9797 39.6758 20.8962 39.6284 22.0073 38.4889C22.1416 38.3512 22.2613 38.2309 22.3571 38.1382C23 37.4128 23.75 36.5839 24.6071 35.5477C29 30.4704 35 22.699 35 15.9638C35 7.88158 28.25 1.25 20 1.25Z" fill="#15803D"/>
<path d="M20 3.125C13.125 3.125 7.5 8.91447 7.5 15.9704C7.5 21.8503 12.5 28.6349 16.1607 33.0674C16.816 33.8973 17.4712 34.651 18.0575 35.2587C18.1612 35.3662 18.2326 35.4518 18.3222 35.5713C19.13 36.6499 20.7639 36.6106 21.6825 35.6247C21.7905 35.5089 21.8867 35.4075 21.9643 35.3289C22.5 34.6957 23.125 33.972 23.8393 33.0674C27.5 28.6349 32.5 21.8503 32.5 15.9704C32.5 8.91447 26.875 3.125 20 3.125Z" fill="white"/>
<mask id="mask0_432_3724" style="mask-type:alpha" maskUnits="userSpaceOnUse" x="12" y="8" width="16" height="16">
<rect x="12.5" y="8.125" width="15" height="15" fill="#D9D9D9"/>
</mask>
<g mask="url(#mask0_432_3724)">
<path d="M18.578 13.3438L19.6405 11.5781L18.7187 10.0469C18.5937 9.83854 18.414 9.73438 18.1796 9.73438C17.9452 9.73438 17.7655 9.83854 17.6405 10.0469L16.4374 12.0625C16.3541 12.2083 16.3307 12.3672 16.3671 12.5391C16.4036 12.7109 16.4947 12.8385 16.6406 12.9219L17.7187 13.5625C17.8645 13.6458 18.0234 13.6667 18.1952 13.625C18.3671 13.5833 18.4947 13.4896 18.578 13.3438ZM24.2968 18.125L23.2343 16.3594C23.1405 16.2135 23.1171 16.0547 23.164 15.8828C23.2109 15.7109 23.3072 15.5833 23.453 15.5L24.5468 14.875C24.6926 14.7917 24.8489 14.7708 25.0156 14.8125C25.1822 14.8542 25.3072 14.9479 25.3906 15.0938L26.078 16.2344C26.1926 16.4115 26.2551 16.6094 26.2656 16.8281C26.276 17.0469 26.2291 17.25 26.1249 17.4375C26.0208 17.6458 25.8671 17.8125 25.664 17.9375C25.4609 18.0625 25.2395 18.125 24.9999 18.125H24.2968ZM21.9687 21.9688L20.4374 20.4375C20.3124 20.3125 20.2499 20.1667 20.2499 20C20.2499 19.8333 20.3124 19.6875 20.4374 19.5625L21.9687 18.0312C22.0728 17.9271 22.1874 17.901 22.3124 17.9531C22.4374 18.0052 22.4999 18.1042 22.4999 18.25V18.75H25.4687L24.5624 20.5625C24.4478 20.7708 24.2916 20.9375 24.0937 21.0625C23.8958 21.1875 23.677 21.25 23.4374 21.25H22.4999V21.75C22.4999 21.8958 22.4374 21.9948 22.3124 22.0469C22.1874 22.099 22.0728 22.0729 21.9687 21.9688ZM16.453 21.25C16.2447 21.25 16.0546 21.1953 15.8827 21.0859C15.7109 20.9766 15.5833 20.8333 15.4999 20.6563C15.4166 20.4896 15.3775 20.3151 15.3827 20.1328C15.3879 19.9505 15.4374 19.7812 15.5312 19.625L16.0624 18.75H18.1249C18.302 18.75 18.4504 18.8099 18.5702 18.9297C18.69 19.0495 18.7499 19.1979 18.7499 19.375V20.625C18.7499 20.8021 18.69 20.9505 18.5702 21.0703C18.4504 21.1901 18.302 21.25 18.1249 21.25H16.453ZM14.9062 19.4688L13.8905 17.4375C13.7968 17.25 13.7525 17.0495 13.7577 16.8359C13.7629 16.6224 13.8228 16.4219 13.9374 16.2344L14.1874 15.8125L13.7655 15.5625C13.651 15.4896 13.6041 15.3828 13.6249 15.2422C13.6458 15.1016 13.7239 15.0156 13.8593 14.9844L15.9374 14.4688C16.1041 14.4271 16.2629 14.4505 16.414 14.5391C16.565 14.6276 16.6614 14.7552 16.7031 14.9219L17.2187 17.0156C17.2499 17.151 17.2083 17.2604 17.0937 17.3438C16.9791 17.4271 16.8645 17.4323 16.7499 17.3594L16.3281 17.0938L14.9062 19.4688ZM22.7343 13.9688L20.6562 13.4531C20.5208 13.4219 20.4452 13.3359 20.4296 13.1953C20.414 13.0547 20.4635 12.9479 20.578 12.875L20.9999 12.625L19.0468 9.375H21.2499C21.4687 9.375 21.6744 9.42969 21.8671 9.53906C22.0598 9.64844 22.2135 9.79688 22.328 9.98438L23.1405 11.3438L23.5468 11.0938C23.6614 11.0208 23.776 11.026 23.8905 11.1094C24.0051 11.1927 24.0468 11.3021 24.0155 11.4375L23.4999 13.5156C23.4583 13.6823 23.3619 13.8099 23.2109 13.8984C23.0598 13.987 22.901 14.0104 22.7343 13.9688Z" fill="#15803D"/>
</g>
</g>
<defs>
<clipPath id="clip0_432_3724">
<rect width="40" height="40" fill="white"/>
</clipPath>
</defs>
</svg>
