<svg width="40" height="40" viewBox="0 0 40 40" fill="none" xmlns="http://www.w3.org/2000/svg">
<g clip-path="url(#clip0_881_4873)">
<path d="M20 1.25C11.75 1.25 5 7.88158 5 15.9638C5 22.699 11 30.4704 15.3929 35.5477C16.1758 36.4941 16.9586 37.3541 17.6599 38.0487C17.7904 38.1779 17.8809 38.2817 17.9945 38.4259V38.4259C18.9797 39.6758 20.8962 39.6284 22.0073 38.4889C22.1416 38.3512 22.2613 38.2309 22.3571 38.1382C23 37.4128 23.75 36.5839 24.6071 35.5477C29 30.4704 35 22.699 35 15.9638C35 7.88158 28.25 1.25 20 1.25Z" fill="#713F12"/>
<path d="M20 3.125C13.125 3.125 7.5 8.91447 7.5 15.9704C7.5 21.8503 12.5 28.6349 16.1607 33.0674C16.816 33.8973 17.4712 34.651 18.0575 35.2587C18.1612 35.3662 18.2326 35.4518 18.3222 35.5713V35.5713C19.13 36.6499 20.7639 36.6106 21.6825 35.6247C21.7905 35.5089 21.8867 35.4075 21.9643 35.3289C22.5 34.6957 23.125 33.972 23.8393 33.0674C27.5 28.6349 32.5 21.8503 32.5 15.9704C32.5 8.91447 26.875 3.125 20 3.125Z" fill="white"/>
<mask id="mask0_881_4873" style="mask-type:alpha" maskUnits="userSpaceOnUse" x="12" y="8" width="16" height="16">
<rect x="12" y="8" width="16" height="16" fill="#D9D9D9"/>
</mask>
<g mask="url(#mask0_881_4873)">
<path d="M14.6666 22.6666H23.9999C24.5555 22.6666 24.9555 22.4222 25.1999 21.9333C25.4444 21.4444 25.3999 20.9778 25.0666 20.5333L22.8833 17.6333C22.8055 17.5333 22.7221 17.4472 22.6333 17.375C22.5444 17.3028 22.4388 17.2444 22.3166 17.2L19.3333 16L17.7333 13.8666C17.611 13.7 17.4555 13.5694 17.2666 13.475C17.0777 13.3805 16.8777 13.3333 16.6666 13.3333H14.6666C14.2999 13.3333 13.986 13.4639 13.7249 13.725C13.4638 13.9861 13.3333 14.3 13.3333 14.6667V21.3333C13.3333 21.7 13.4638 22.0139 13.7249 22.275C13.986 22.5361 14.2999 22.6666 14.6666 22.6666ZM14.6666 21.3333V20.2667L15.9999 20.7L22.0166 18.7L23.9999 21.3333H14.6666ZM15.9999 19.3L14.6666 18.85V17.6L15.9999 18.0333L18.6333 17.1667L20.2333 17.8833L15.9999 19.3ZM24.8833 17.0833L26.7333 16.2667C26.9221 16.1778 27.0694 16.0528 27.1749 15.8917C27.2805 15.7305 27.3333 15.55 27.3333 15.35V14.1333C27.3333 13.9 27.2583 13.6944 27.1083 13.5167C26.9583 13.3389 26.7721 13.2222 26.5499 13.1667L24.7999 12.7667C24.6444 12.7333 24.4971 12.7361 24.3583 12.775C24.2194 12.8139 24.0888 12.8778 23.9666 12.9667L23.0499 13.7C22.9277 13.7889 22.8333 13.9028 22.7666 14.0417C22.6999 14.1805 22.6666 14.3278 22.6666 14.4833V15.5167C22.6666 15.6722 22.6999 15.8194 22.7666 15.9583C22.8333 16.0972 22.9277 16.2111 23.0499 16.3L23.8666 16.95C24.0221 17.0722 24.1888 17.1444 24.3666 17.1667C24.5444 17.1889 24.7166 17.1611 24.8833 17.0833ZM15.9999 16.6333L14.6666 16.1833V14.6667H16.6666L17.7499 16.05L15.9999 16.6333ZM24.5333 15.7833L23.9999 15.3666V14.6333L24.6666 14.1L25.9999 14.4V15.1333L24.5333 15.7833ZM20.4833 13.1333L22.6999 12.25C22.8888 12.1722 23.0416 12.05 23.1583 11.8833C23.2749 11.7167 23.3333 11.5278 23.3333 11.3167V9.48332C23.3333 9.23887 23.2583 9.02776 23.1083 8.84998C22.9583 8.67221 22.7666 8.55554 22.5333 8.49998L20.3999 8.08332C20.2666 8.06109 20.136 8.06109 20.0083 8.08332C19.8805 8.10554 19.761 8.15554 19.6499 8.23332L18.4499 9.03332C18.3055 9.12221 18.1944 9.24165 18.1166 9.39165C18.0388 9.54165 17.9999 9.69998 17.9999 9.86665V11.4667C17.9999 11.6333 18.0388 11.7917 18.1166 11.9417C18.1944 12.0917 18.3055 12.2111 18.4499 12.3L19.5666 13.0333C19.6999 13.1222 19.8471 13.175 20.0083 13.1917C20.1694 13.2083 20.3277 13.1889 20.4833 13.1333ZM20.1499 11.8333L19.3333 11.2833V10.05L20.2833 9.41665L21.9999 9.76665V11.1L20.1499 11.8333Z" fill="#713F12"/>
</g>
</g>
<defs>
<clipPath id="clip0_881_4873">
<rect width="40" height="40" fill="white"/>
</clipPath>
</defs>
</svg>
