<svg width="40" height="40" viewBox="0 0 40 40" fill="none" xmlns="http://www.w3.org/2000/svg">
<g clip-path="url(#clip0_778_2728)">
<path d="M20 1.25C11.75 1.25 5 7.88158 5 15.9638C5 22.699 11 30.4704 15.3929 35.5477C16.1758 36.4941 16.9586 37.3541 17.6599 38.0487C17.7904 38.1779 17.8809 38.2817 17.9945 38.4259V38.4259C18.9797 39.6758 20.8962 39.6284 22.0073 38.4889C22.1416 38.3512 22.2613 38.2309 22.3571 38.1382C23 37.4128 23.75 36.5839 24.6071 35.5477C29 30.4704 35 22.699 35 15.9638C35 7.88158 28.25 1.25 20 1.25Z" fill="#0891B2"/>
<path d="M20 3.125C13.125 3.125 7.5 8.91447 7.5 15.9704C7.5 21.8503 12.5 28.6349 16.1607 33.0674C16.816 33.8973 17.4712 34.651 18.0575 35.2587C18.1612 35.3662 18.2326 35.4518 18.3222 35.5713V35.5713C19.13 36.6499 20.7639 36.6106 21.6825 35.6247C21.7905 35.5089 21.8867 35.4075 21.9643 35.3289C22.5 34.6957 23.125 33.972 23.8393 33.0674C27.5 28.6349 32.5 21.8503 32.5 15.9704C32.5 8.91447 26.875 3.125 20 3.125Z" fill="#164E63"/>
<mask id="mask0_778_2728" style="mask-type:alpha" maskUnits="userSpaceOnUse" x="12" y="8" width="16" height="16">
<rect x="12" y="8" width="16" height="16" fill="#D9D9D9"/>
</mask>
<g mask="url(#mask0_778_2728)">
<path d="M16.0003 21.3334C15.4448 21.3334 14.9725 21.139 14.5837 20.7501C14.1948 20.3612 14.0003 19.889 14.0003 19.3334H13.3337C13.1448 19.3334 12.9864 19.2695 12.8587 19.1417C12.7309 19.014 12.667 18.8556 12.667 18.6667V12.0001C12.667 11.6334 12.7975 11.3195 13.0587 11.0584C13.3198 10.7973 13.6337 10.6667 14.0003 10.6667H22.0003C22.367 10.6667 22.6809 10.7973 22.942 11.0584C23.2031 11.3195 23.3337 11.6334 23.3337 12.0001V13.3334H24.667C24.8781 13.3334 25.0781 13.3806 25.267 13.4751C25.4559 13.5695 25.6114 13.7001 25.7337 13.8667L27.2003 15.8167C27.2448 15.8723 27.2781 15.9334 27.3003 16.0001C27.3225 16.0667 27.3337 16.139 27.3337 16.2167V18.6667C27.3337 18.8556 27.2698 19.014 27.142 19.1417C27.0142 19.2695 26.8559 19.3334 26.667 19.3334H26.0003C26.0003 19.889 25.8059 20.3612 25.417 20.7501C25.0281 21.139 24.5559 21.3334 24.0003 21.3334C23.4448 21.3334 22.9725 21.139 22.5837 20.7501C22.1948 20.3612 22.0003 19.889 22.0003 19.3334H18.0003C18.0003 19.889 17.8059 20.3612 17.417 20.7501C17.0281 21.139 16.5559 21.3334 16.0003 21.3334ZM16.0003 20.0001C16.1892 20.0001 16.3475 19.9362 16.4753 19.8084C16.6031 19.6806 16.667 19.5223 16.667 19.3334C16.667 19.1445 16.6031 18.9862 16.4753 18.8584C16.3475 18.7306 16.1892 18.6667 16.0003 18.6667C15.8114 18.6667 15.6531 18.7306 15.5253 18.8584C15.3975 18.9862 15.3337 19.1445 15.3337 19.3334C15.3337 19.5223 15.3975 19.6806 15.5253 19.8084C15.6531 19.9362 15.8114 20.0001 16.0003 20.0001ZM14.0003 18.0001H14.5337C14.7225 17.8001 14.9392 17.639 15.1837 17.5167C15.4281 17.3945 15.7003 17.3334 16.0003 17.3334C16.3003 17.3334 16.5725 17.3945 16.817 17.5167C17.0614 17.639 17.2781 17.8001 17.467 18.0001H22.0003V12.0001H14.0003V18.0001ZM24.0003 20.0001C24.1892 20.0001 24.3475 19.9362 24.4753 19.8084C24.6031 19.6806 24.667 19.5223 24.667 19.3334C24.667 19.1445 24.6031 18.9862 24.4753 18.8584C24.3475 18.7306 24.1892 18.6667 24.0003 18.6667C23.8114 18.6667 23.6531 18.7306 23.5253 18.8584C23.3975 18.9862 23.3337 19.1445 23.3337 19.3334C23.3337 19.5223 23.3975 19.6806 23.5253 19.8084C23.6531 19.9362 23.8114 20.0001 24.0003 20.0001ZM23.3337 16.6667H26.167L24.667 14.6667H23.3337V16.6667Z" fill="white"/>
</g>
</g>
<defs>
<clipPath id="clip0_778_2728">
<rect width="40" height="40" fill="white"/>
</clipPath>
</defs>
</svg>
