<svg width="40" height="40" viewBox="0 0 40 40" fill="none" xmlns="http://www.w3.org/2000/svg">
<g clip-path="url(#clip0_760_4964)">
<path d="M20 1.25C11.75 1.25 5 7.88158 5 15.9638C5 22.699 11 30.4704 15.3929 35.5477C16.1758 36.4941 16.9586 37.3541 17.6599 38.0487C17.7904 38.1779 17.8809 38.2817 17.9945 38.4259C18.9797 39.6758 20.8962 39.6284 22.0073 38.4889C22.1416 38.3512 22.2613 38.2309 22.3571 38.1382C23 37.4128 23.75 36.5839 24.6071 35.5477C29 30.4704 35 22.699 35 15.9638C35 7.88158 28.25 1.25 20 1.25Z" fill="#713F12"/>
<path d="M20 3.125C13.125 3.125 7.5 8.91447 7.5 15.9704C7.5 21.8503 12.5 28.6349 16.1607 33.0674C16.816 33.8973 17.4712 34.651 18.0575 35.2587C18.1612 35.3662 18.2326 35.4518 18.3222 35.5713C19.13 36.6499 20.7639 36.6106 21.6825 35.6247C21.7905 35.5089 21.8867 35.4075 21.9643 35.3289C22.5 34.6957 23.125 33.972 23.8393 33.0674C27.5 28.6349 32.5 21.8503 32.5 15.9704C32.5 8.91447 26.875 3.125 20 3.125Z" fill="white"/>
<mask id="mask0_760_4964" style="mask-type:alpha" maskUnits="userSpaceOnUse" x="12" y="8" width="16" height="16">
<rect x="12" y="8" width="16" height="16" fill="#D9D9D9"/>
</mask>
<g mask="url(#mask0_760_4964)">
<path d="M19.9999 11.4333L14.6666 13.5666V20.6666H15.9999V16.6666C15.9999 16.3 16.1305 15.9861 16.3916 15.725C16.6527 15.4639 16.9666 15.3333 17.3333 15.3333H22.6666C23.0333 15.3333 23.3471 15.4639 23.6083 15.725C23.8694 15.9861 23.9999 16.3 23.9999 16.6666V20.6666H25.3333V13.5666L19.9999 11.4333ZM13.3333 20.6666V13.5666C13.3333 13.2889 13.4083 13.0389 13.5583 12.8166C13.7083 12.5944 13.911 12.4333 14.1666 12.3333L19.4999 10.2C19.6555 10.1333 19.8221 10.1 19.9999 10.1C20.1777 10.1 20.3444 10.1333 20.4999 10.2L25.8333 12.3333C26.0888 12.4333 26.2916 12.5944 26.4416 12.8166C26.5916 13.0389 26.6666 13.2889 26.6666 13.5666V20.6666C26.6666 21.0333 26.536 21.3472 26.2749 21.6083C26.0138 21.8694 25.6999 22 25.3333 22H22.6666V16.6666H17.3333V22H14.6666C14.2999 22 13.986 21.8694 13.7249 21.6083C13.4638 21.3472 13.3333 21.0333 13.3333 20.6666ZM17.9999 22V20.6666H19.3333V22H17.9999ZM19.3333 20V18.6666H20.6666V20H19.3333ZM20.6666 22V20.6666H21.9999V22H20.6666Z" fill="#713F12"/>
</g>
</g>
<defs>
<clipPath id="clip0_760_4964">
<rect width="40" height="40" fill="white"/>
</clipPath>
</defs>
</svg>
