<svg width="24" height="24" viewBox="0 0 24 24" fill="none" xmlns="http://www.w3.org/2000/svg">
	<rect width="24" height="24" rx="12" fill="none" />
	<mask id="mask0_1166_6755" style="mask-type:alpha" maskUnits="userSpaceOnUse" x="0" y="0" width="24" height="24">
		<rect width="24" height="24" fill="#D9D9D9" />
	</mask>
	<g mask="url(#mask0_1166_6755)">
		<path
			d="M16.422 12.8297H5.75269C5.53943 12.8297 5.36066 12.7575 5.2164 12.6133C5.07213 12.469 5 12.2903 5 12.077C5 11.8637 5.07213 11.685 5.2164 11.5407C5.36066 11.3964 5.53943 11.3243 5.75269 11.3243H16.422L15.3871 10.2705C15.2366 10.12 15.1644 9.94437 15.1707 9.74366C15.177 9.54294 15.2554 9.36731 15.4059 9.21677C15.5565 9.07878 15.7352 9.00665 15.9422 9.00038C16.1492 8.9941 16.3217 9.06624 16.4597 9.21677L18.7742 11.5501C18.9247 11.7006 19 11.8763 19 12.077C19 12.2777 18.9247 12.4533 18.7742 12.6039L16.4409 14.9372C16.3029 15.0752 16.1304 15.1442 15.9234 15.1442C15.7164 15.1442 15.5376 15.0752 15.3871 14.9372C15.2366 14.7867 15.1613 14.6079 15.1613 14.4009C15.1613 14.1939 15.2366 14.0152 15.3871 13.8646L16.422 12.8297Z"
			fill="white" />
	</g>
</svg>
