<svg width="40" height="40" viewBox="0 0 40 40" fill="none" xmlns="http://www.w3.org/2000/svg">
<g clip-path="url(#clip0_760_4792)">
<path d="M20 1.25C11.75 1.25 5 7.88158 5 15.9638C5 22.699 11 30.4704 15.3929 35.5477C16.1758 36.4941 16.9586 37.3541 17.6599 38.0487C17.7904 38.1779 17.8809 38.2817 17.9945 38.4259C18.9797 39.6758 20.8962 39.6284 22.0073 38.4889C22.1416 38.3512 22.2613 38.2309 22.3571 38.1382C23 37.4128 23.75 36.5839 24.6071 35.5477C29 30.4704 35 22.699 35 15.9638C35 7.88158 28.25 1.25 20 1.25Z" fill="#164E63"/>
<path d="M20 3.125C13.125 3.125 7.5 8.91447 7.5 15.9704C7.5 21.8503 12.5 28.6349 16.1607 33.0674C16.816 33.8973 17.4712 34.651 18.0575 35.2587C18.1612 35.3662 18.2326 35.4518 18.3222 35.5713C19.13 36.6499 20.7639 36.6106 21.6825 35.6247C21.7905 35.5089 21.8867 35.4075 21.9643 35.3289C22.5 34.6957 23.125 33.972 23.8393 33.0674C27.5 28.6349 32.5 21.8503 32.5 15.9704C32.5 8.91447 26.875 3.125 20 3.125Z" fill="white"/>
<mask id="mask0_760_4792" style="mask-type:alpha" maskUnits="userSpaceOnUse" x="12" y="8" width="16" height="16">
<rect x="12" y="8" width="16" height="16" fill="#D9D9D9"/>
</mask>
<g mask="url(#mask0_760_4792)">
<path d="M16.0001 21.3334C15.4445 21.3334 14.9723 21.1389 14.5834 20.75C14.1945 20.3611 14.0001 19.8889 14.0001 19.3334H13.3334C13.1445 19.3334 12.9862 19.2695 12.8584 19.1417C12.7306 19.0139 12.6667 18.8556 12.6667 18.6667V12C12.6667 11.6334 12.7973 11.3195 13.0584 11.0584C13.3195 10.7972 13.6334 10.6667 14.0001 10.6667H22.0001C22.3667 10.6667 22.6806 10.7972 22.9417 11.0584C23.2029 11.3195 23.3334 11.6334 23.3334 12V13.3334H24.6667C24.8779 13.3334 25.0779 13.3806 25.2667 13.475C25.4556 13.5695 25.6112 13.7 25.7334 13.8667L27.2001 15.8167C27.2445 15.8722 27.2779 15.9334 27.3001 16C27.3223 16.0667 27.3334 16.1389 27.3334 16.2167V18.6667C27.3334 18.8556 27.2695 19.0139 27.1417 19.1417C27.014 19.2695 26.8556 19.3334 26.6667 19.3334H26.0001C26.0001 19.8889 25.8056 20.3611 25.4167 20.75C25.0279 21.1389 24.5556 21.3334 24.0001 21.3334C23.4445 21.3334 22.9723 21.1389 22.5834 20.75C22.1945 20.3611 22.0001 19.8889 22.0001 19.3334H18.0001C18.0001 19.8889 17.8056 20.3611 17.4167 20.75C17.0279 21.1389 16.5556 21.3334 16.0001 21.3334ZM16.0001 20C16.189 20 16.3473 19.9361 16.4751 19.8084C16.6029 19.6806 16.6667 19.5222 16.6667 19.3334C16.6667 19.1445 16.6029 18.9861 16.4751 18.8584C16.3473 18.7306 16.189 18.6667 16.0001 18.6667C15.8112 18.6667 15.6529 18.7306 15.5251 18.8584C15.3973 18.9861 15.3334 19.1445 15.3334 19.3334C15.3334 19.5222 15.3973 19.6806 15.5251 19.8084C15.6529 19.9361 15.8112 20 16.0001 20ZM14.0001 18H14.5334C14.7223 17.8 14.939 17.6389 15.1834 17.5167C15.4279 17.3945 15.7001 17.3334 16.0001 17.3334C16.3001 17.3334 16.5723 17.3945 16.8167 17.5167C17.0612 17.6389 17.2779 17.8 17.4667 18H22.0001V12H14.0001V18ZM24.0001 20C24.189 20 24.3473 19.9361 24.4751 19.8084C24.6029 19.6806 24.6667 19.5222 24.6667 19.3334C24.6667 19.1445 24.6029 18.9861 24.4751 18.8584C24.3473 18.7306 24.189 18.6667 24.0001 18.6667C23.8112 18.6667 23.6529 18.7306 23.5251 18.8584C23.3973 18.9861 23.3334 19.1445 23.3334 19.3334C23.3334 19.5222 23.3973 19.6806 23.5251 19.8084C23.6529 19.9361 23.8112 20 24.0001 20ZM23.3334 16.6667H26.1667L24.6667 14.6667H23.3334V16.6667Z" fill="#164E63"/>
</g>
</g>
<defs>
<clipPath id="clip0_760_4792">
<rect width="40" height="40" fill="white"/>
</clipPath>
</defs>
</svg>
