<svg xmlns="http://www.w3.org/2000/svg" version="1.1" xmlns:xlink="http://www.w3.org/1999/xlink" xmlns:svgjs="http://svgjs.com/svgjs" width="24" height="24"><svg width="24" height="24" viewBox="0 0 24 24" fill="none" xmlns="http://www.w3.org/2000/svg">
<g clip-path="url(#clip0_100_685)">
<path opacity="0.4" d="M12 0.75C7.05 0.75 3 4.72895 3 9.57829C3 13.6194 6.6 18.2822 9.23571 21.3286C9.70545 21.8965 10.1752 22.4125 10.5959 22.8292C10.6742 22.9067 10.7285 22.969 10.7967 23.0555V23.0555C11.3878 23.8055 12.5377 23.777 13.2044 23.0934C13.285 23.0107 13.3568 22.9385 13.4143 22.8829C13.8 22.4477 14.25 21.9503 14.7643 21.3286C17.4 18.2822 21 13.6194 21 9.57829C21 4.72895 16.95 0.75 12 0.75Z" fill="#5BBE87"></path>
<path d="M12 1.875C7.875 1.875 4.5 5.34868 4.5 9.58224C4.5 13.1102 7.5 17.1809 9.69643 19.8405C10.0896 20.3384 10.4827 20.7906 10.8345 21.1552C10.8967 21.2197 10.9396 21.2711 10.9933 21.3428V21.3428C11.478 21.99 12.4583 21.9664 13.0095 21.3748C13.0743 21.3053 13.132 21.2445 13.1786 21.1974C13.5 20.8174 13.875 20.3832 14.3036 19.8405C16.5 17.1809 19.5 13.1102 19.5 9.58224C19.5 5.34868 16.125 1.875 12 1.875Z" fill="#3EA26E"></path>
<mask id="SvgjsMask1001" style="mask-type:alpha" maskUnits="userSpaceOnUse" x="7" y="4" width="10" height="10">
<rect x="7.5" y="4.875" width="9" height="9" fill="#D9D9D9"></rect>
</mask>
<g mask="url(#mask0_100_685)">
<path d="M11.1469 8.00625L11.7844 6.94688L11.2313 6.02813C11.1563 5.90313 11.0484 5.84062 10.9078 5.84062C10.7672 5.84062 10.6594 5.90313 10.5844 6.02813L9.8625 7.2375C9.8125 7.325 9.79844 7.42031 9.82032 7.52344C9.84219 7.62656 9.89688 7.70313 9.98438 7.75313L10.6313 8.1375C10.7188 8.1875 10.8141 8.2 10.9172 8.175C11.0203 8.15 11.0969 8.09375 11.1469 8.00625ZM14.5781 10.875L13.9406 9.81563C13.8844 9.72813 13.8703 9.63281 13.8984 9.52969C13.9266 9.42656 13.9844 9.35 14.0719 9.3L14.7281 8.925C14.8156 8.875 14.9094 8.8625 15.0094 8.8875C15.1094 8.9125 15.1844 8.96875 15.2344 9.05625L15.6469 9.74063C15.7156 9.84688 15.7531 9.96563 15.7594 10.0969C15.7656 10.2281 15.7375 10.35 15.675 10.4625C15.6125 10.5875 15.5203 10.6875 15.3984 10.7625C15.2766 10.8375 15.1438 10.875 15 10.875H14.5781ZM13.1813 13.1812L12.2625 12.2625C12.1875 12.1875 12.15 12.1 12.15 12C12.15 11.9 12.1875 11.8125 12.2625 11.7375L13.1813 10.8188C13.2438 10.7563 13.3125 10.7406 13.3875 10.7719C13.4625 10.8031 13.5 10.8625 13.5 10.95V11.25H15.2813L14.7375 12.3375C14.6688 12.4625 14.575 12.5625 14.4563 12.6375C14.3375 12.7125 14.2063 12.75 14.0625 12.75H13.5V13.05C13.5 13.1375 13.4625 13.1969 13.3875 13.2281C13.3125 13.2594 13.2438 13.2437 13.1813 13.1812ZM9.87188 12.75C9.74688 12.75 9.63282 12.7172 9.52969 12.6516C9.42657 12.5859 9.35 12.5 9.3 12.3938C9.25 12.2938 9.22657 12.1891 9.22969 12.0797C9.23282 11.9703 9.2625 11.8687 9.31875 11.775L9.6375 11.25H10.875C10.9813 11.25 11.0703 11.2859 11.1422 11.3578C11.2141 11.4297 11.25 11.5188 11.25 11.625V12.375C11.25 12.4812 11.2141 12.5703 11.1422 12.6422C11.0703 12.7141 10.9813 12.75 10.875 12.75H9.87188ZM8.94375 11.6812L8.33438 10.4625C8.27813 10.35 8.25157 10.2297 8.25469 10.1016C8.25782 9.97344 8.29375 9.85313 8.3625 9.74063L8.5125 9.4875L8.25938 9.3375C8.19063 9.29375 8.1625 9.22969 8.175 9.14531C8.1875 9.06094 8.23438 9.00938 8.31563 8.99063L9.5625 8.68125C9.6625 8.65625 9.75782 8.67031 9.84844 8.72344C9.93907 8.77656 9.99688 8.85312 10.0219 8.95312L10.3313 10.2094C10.35 10.2906 10.325 10.3562 10.2563 10.4062C10.1875 10.4563 10.1188 10.4594 10.05 10.4156L9.79688 10.2563L8.94375 11.6812ZM13.6406 8.38125L12.3938 8.07188C12.3125 8.05313 12.2672 8.00156 12.2578 7.91719C12.2484 7.83281 12.2781 7.76875 12.3469 7.725L12.6 7.575L11.4281 5.625H12.75C12.8813 5.625 13.0047 5.65781 13.1203 5.72344C13.2359 5.78906 13.3281 5.87813 13.3969 5.99063L13.8844 6.80625L14.1281 6.65625C14.1969 6.6125 14.2656 6.61563 14.3344 6.66563C14.4031 6.71563 14.4281 6.78125 14.4094 6.8625L14.1 8.10938C14.075 8.20938 14.0172 8.28594 13.9266 8.33906C13.8359 8.39219 13.7406 8.40625 13.6406 8.38125Z" fill="#F8FAF5"></path>
</g>
</g>
<defs>
<clipPath id="SvgjsClipPath1000">
<rect width="24" height="24" fill="white"></rect>
</clipPath>
</defs>
</svg><style>@media (prefers-color-scheme: light) { :root { filter: none; } }
</style></svg>